<svg xmlns="http://www.w3.org/2000/svg" version="1.1" xmlns:xlink="http://www.w3.org/1999/xlink" viewBox="0 0 200 200"><rect width="200" height="200" fill="url('#gradient')"></rect><defs><linearGradient id="gradient" gradientTransform="rotate(255 0.5 0.5)"><stop offset="0%" stop-color="#252681"></stop><stop offset="100%" stop-color="#423f4c"></stop></linearGradient></defs><g><g fill="#fcfb9b" transform="matrix(2.2056382641748495,0,0,2.2056382641748495,65.22651122003029,115.68146321925326)" stroke="#3a3c94" stroke-width="0"><path d="M12.24-14.22L12.24-11.57L7.97-11.57L7.97 0L4.54 0L4.54-11.57L0.35-11.57L0.35-14.22L12.24-14.22ZM17.33-14.22L17.33 0L13.92 0L13.92-14.22L17.33-14.22ZM27.51 0L25-5.02L23.14-5.02L23.14 0L19.72 0L19.72-14.22L25.31-14.22Q27.84-14.22 29.27-13.10Q30.69-11.97 30.69-9.92L30.69-9.92Q30.69-8.44 30.09-7.46Q29.49-6.48 28.21-5.88L28.21-5.88L31.18-0.15L31.18 0L27.51 0ZM23.14-11.57L23.14-7.67L25.31-7.67Q26.29-7.67 26.78-8.18Q27.28-8.69 27.28-9.61Q27.28-10.53 26.78-11.05Q26.28-11.57 25.31-11.57L25.31-11.57L23.14-11.57Z"></path></g></g></svg>